<?xml version="1.0" encoding="UTF-8" standalone="no"?>
<!DOCTYPE svg PUBLIC "-//W3C//DTD SVG 1.1//EN"
 "http://www.w3.org/Graphics/SVG/1.1/DTD/svg11.dtd">
<!-- Generated by graphviz version 8.1.0 (20230707.0739)
 -->
<!-- Pages: 1 -->
<svg width="452pt" height="806pt"
 viewBox="0.00 0.00 451.50 806.00" xmlns="http://www.w3.org/2000/svg" xmlns:xlink="http://www.w3.org/1999/xlink">
<g id="graph0" class="graph" transform="scale(1 1) rotate(0) translate(4 802)">
<polygon fill="white" stroke="none" points="-4,4 -4,-802 447.5,-802 447.5,4 -4,4"/>
<text text-anchor="middle" x="221.75" y="-765.5" font-family="Times New Roman,serif" font-size="30.00">dependencies&#45;graph&#45;synrgychapter6</text>
<text text-anchor="middle" x="221.75" y="-731" font-family="Times New Roman,serif" font-size="30.00"> </text>
<!-- :app -->
<g id="node1" class="node">
<title>:app</title>
<ellipse fill="#eeeeee" stroke="black" cx="221.49" cy="-703" rx="27" ry="18"/>
<text text-anchor="middle" x="221.49" y="-697.58" font-family="Times New Roman,serif" font-size="14.00">:app</text>
</g>
<!-- :presentation -->
<g id="node6" class="node">
<title>:presentation</title>
<ellipse fill="#eeeeee" stroke="black" cx="221.49" cy="-566" rx="57.55" ry="18"/>
<text text-anchor="middle" x="221.49" y="-560.58" font-family="Times New Roman,serif" font-size="14.00">:presentation</text>
</g>
<!-- :app&#45;&gt;:presentation -->
<g id="edge1" class="edge">
<title>:app&#45;&gt;:presentation</title>
<path fill="none" stroke="black" stroke-dasharray="1,5" d="M221.49,-684.63C221.49,-661.95 221.49,-621.96 221.49,-594.98"/>
<polygon fill="black" stroke="black" points="224.99,-595.31 221.49,-585.31 217.99,-595.31 224.99,-595.31"/>
</g>
<!-- :common -->
<g id="node2" class="node">
<title>:common</title>
<ellipse fill="#eeeeee" stroke="black" cx="190.49" cy="-18" rx="45.57" ry="18"/>
<text text-anchor="middle" x="190.49" y="-12.57" font-family="Times New Roman,serif" font-size="14.00">:common</text>
</g>
<!-- :data -->
<g id="node3" class="node">
<title>:data</title>
<ellipse fill="#eeeeee" stroke="black" cx="202.49" cy="-292" rx="28.11" ry="18"/>
<text text-anchor="middle" x="202.49" y="-286.57" font-family="Times New Roman,serif" font-size="14.00">:data</text>
</g>
<!-- :data&#45;&gt;:common -->
<g id="edge6" class="edge">
<title>:data&#45;&gt;:common</title>
<path fill="none" stroke="black" stroke-dasharray="1,5" d="M201.73,-273.57C199.7,-227.71 194.21,-103.33 191.74,-47.18"/>
<polygon fill="black" stroke="black" points="195.19,-47.12 191.26,-37.28 188.2,-47.43 195.19,-47.12"/>
</g>
<!-- :domain -->
<g id="node5" class="node">
<title>:domain</title>
<ellipse fill="#eeeeee" stroke="black" cx="258.49" cy="-155" rx="40.09" ry="18"/>
<text text-anchor="middle" x="258.49" y="-149.57" font-family="Times New Roman,serif" font-size="14.00">:domain</text>
</g>
<!-- :data&#45;&gt;:domain -->
<g id="edge5" class="edge">
<title>:data&#45;&gt;:domain</title>
<path fill="none" stroke="black" stroke-dasharray="1,5" d="M209.47,-274.18C218.95,-251.34 235.99,-210.26 247.27,-183.06"/>
<polygon fill="black" stroke="black" points="250.83,-184.61 251.43,-174.04 244.36,-181.93 250.83,-184.61"/>
</g>
<!-- :di -->
<g id="node4" class="node">
<title>:di</title>
<ellipse fill="#eeeeee" stroke="black" cx="221.49" cy="-429" rx="27" ry="18"/>
<text text-anchor="middle" x="221.49" y="-423.57" font-family="Times New Roman,serif" font-size="14.00">:di</text>
</g>
<!-- :di&#45;&gt;:data -->
<g id="edge7" class="edge">
<title>:di&#45;&gt;:data</title>
<path fill="none" stroke="black" stroke-dasharray="1,5" d="M219.05,-410.63C215.86,-387.95 210.23,-347.96 206.43,-320.98"/>
<polygon fill="black" stroke="black" points="209.79,-320.72 204.93,-311.31 202.86,-321.7 209.79,-320.72"/>
</g>
<!-- :di&#45;&gt;:domain -->
<g id="edge8" class="edge">
<title>:di&#45;&gt;:domain</title>
<path fill="none" stroke="black" stroke-dasharray="1,5" d="M224.27,-410.83C227.95,-387.88 234.54,-345.93 239.49,-310 245.57,-265.99 251.7,-214.76 255.3,-183.89"/>
<polygon fill="black" stroke="black" points="258.87,-184.45 256.55,-174.11 251.92,-183.64 258.87,-184.45"/>
</g>
<!-- :domain&#45;&gt;:common -->
<g id="edge9" class="edge">
<title>:domain&#45;&gt;:common</title>
<path fill="none" stroke="black" stroke-dasharray="1,5" d="M250.02,-137.18C238.47,-114.24 217.64,-72.9 203.94,-45.7"/>
<polygon fill="black" stroke="black" points="206.7,-44.39 199.08,-37.04 200.45,-47.54 206.7,-44.39"/>
</g>
<!-- :presentation&#45;&gt;:common -->
<g id="edge3" class="edge">
<title>:presentation&#45;&gt;:common</title>
<path fill="none" stroke="black" stroke-dasharray="1,5" d="M215.29,-547.63C207.35,-524.81 193.65,-483.37 185.49,-447 172.03,-386.96 169.95,-371.37 165.49,-310 158.48,-213.38 175.86,-98.9 185.13,-47.03"/>
<polygon fill="black" stroke="black" points="188.72,-47.84 187.08,-37.37 181.84,-46.58 188.72,-47.84"/>
</g>
<!-- :presentation&#45;&gt;:di -->
<g id="edge4" class="edge">
<title>:presentation&#45;&gt;:di</title>
<path fill="none" stroke="black" stroke-dasharray="1,5" d="M221.49,-547.63C221.49,-524.95 221.49,-484.96 221.49,-457.98"/>
<polygon fill="black" stroke="black" points="224.99,-458.31 221.49,-448.31 217.99,-458.31 224.99,-458.31"/>
</g>
<!-- :presentation&#45;&gt;:domain -->
<g id="edge2" class="edge">
<title>:presentation&#45;&gt;:domain</title>
<path fill="none" stroke="black" stroke-dasharray="1,5" d="M228.5,-547.78C237.3,-525.12 251.93,-483.85 257.49,-447 271.93,-351.33 265.33,-235.94 261.08,-183.88"/>
<polygon fill="black" stroke="black" points="264.51,-183.86 260.17,-174.19 257.54,-184.45 264.51,-183.86"/>
</g>
</g>
</svg>
